<svg width="29" height="29" viewBox="0 0 29 29" fill="none" xmlns="http://www.w3.org/2000/svg">
<path d="M25.002 24.7397L18.7021 21.2397H4.00195V4.90674H25.002V24.7397ZM6.00195 19.2397H19.2197L23.002 21.3403V6.90674H6.00195V19.2397Z" fill="currentColor"/>
<path d="M12.1687 11.2803C12.1687 11.9431 11.6463 12.4803 11.002 12.4803C10.3577 12.4803 9.83533 11.9431 9.83533 11.2803C9.83533 10.6176 10.3577 10.0803 11.002 10.0803C11.6463 10.0803 12.1687 10.6176 12.1687 11.2803Z" fill="currentColor"/>
<path d="M19.1687 11.2803C19.1687 11.9431 18.6463 12.4803 18.002 12.4803C17.3577 12.4803 16.8353 11.9431 16.8353 11.2803C16.8353 10.6176 17.3577 10.0803 18.002 10.0803C18.6463 10.0803 19.1687 10.6176 19.1687 11.2803Z" fill="currentColor"/>
<path d="M17.8677 15.2638C16.7368 16.5164 15.3673 16.9274 14.0981 16.7872C12.879 16.6526 11.8008 16.0178 11.1245 15.2599L12.6167 13.9279C12.9914 14.3479 13.6286 14.7238 14.3179 14.7999C14.9572 14.8705 15.6896 14.6923 16.3833 13.9239L17.8677 15.2638Z" fill="currentColor"/>
</svg>
