<svg width="25" height="24" viewBox="0 0 25 24" fill="none" xmlns="http://www.w3.org/2000/svg">
<path fill-rule="evenodd" clip-rule="evenodd" d="M13.7739 1.55335C14.2146 1.26429 14.7516 1.16087 15.2681 1.26559C15.6581 1.34464 15.9561 1.55475 16.1781 1.73985C16.3903 1.91675 16.6279 2.15437 16.8836 2.41012L22.0828 7.60932C22.3386 7.86502 22.5762 8.1026 22.7531 8.31482C22.9382 8.53687 23.1483 8.83483 23.2274 9.2248C23.3321 9.74135 23.2287 10.2783 22.9396 10.7191C22.7214 11.0518 22.4156 11.2504 22.1613 11.3878C21.9182 11.5192 21.6093 11.6515 21.2769 11.794L18.7461 12.8786C18.6893 12.9029 18.6616 12.9148 18.6416 12.924C18.6412 12.9242 18.6407 12.9244 18.6403 12.9246C18.6399 12.9249 18.6396 12.9252 18.6392 12.9256C18.6233 12.9408 18.6019 12.9621 18.5582 13.0058L16.9973 14.5667C16.929 14.635 16.8955 14.6687 16.8719 14.694C16.8713 14.6946 16.8707 14.6952 16.8702 14.6958C16.87 14.6966 16.8698 14.6974 16.8696 14.6982C16.8617 14.7319 16.8522 14.7786 16.8333 14.8733L16.0919 18.5802C16.004 19.0198 15.9249 19.4152 15.8327 19.7256C15.7405 20.0362 15.5887 20.4374 15.2467 20.7408C14.8093 21.1289 14.2239 21.3062 13.6447 21.2259C13.1918 21.1631 12.843 20.9134 12.594 20.7062C12.3451 20.4991 12.06 20.214 11.743 19.8969L8.87659 17.0305L3.92683 21.9803C3.53631 22.3708 2.90314 22.3708 2.51262 21.9803C2.1221 21.5897 2.1221 20.9566 2.51262 20.5661L7.46238 15.6163L4.59606 12.75C4.27897 12.4329 3.99385 12.1479 3.78676 11.899C3.57951 11.6499 3.32984 11.3011 3.26706 10.8483C3.18675 10.269 3.36399 9.68362 3.75212 9.24619C4.05556 8.90422 4.45678 8.75248 4.76738 8.66021C5.07775 8.56801 5.47312 8.48896 5.91282 8.40105L9.61968 7.65968C9.71439 7.64074 9.76101 7.63128 9.79472 7.62331C9.79555 7.62311 9.79635 7.62292 9.79711 7.62274C9.79769 7.6222 9.79829 7.62164 9.79892 7.62106C9.82424 7.59744 9.85798 7.56389 9.92627 7.4956L11.4872 5.93471C11.5309 5.891 11.5522 5.86964 11.5673 5.85375C11.5677 5.85338 11.568 5.85302 11.5684 5.85267C11.5686 5.85223 11.5688 5.85178 11.569 5.85131C11.5781 5.83131 11.59 5.80362 11.6144 5.7468L12.699 3.21604C12.8414 2.8836 12.9738 2.57473 13.1051 2.33165C13.2425 2.07733 13.4412 1.77158 13.7739 1.55335ZM13.1266 18.4521C13.484 18.8095 13.7036 19.0277 13.8732 19.1688C13.8842 19.1779 13.8944 19.1863 13.9039 19.1939C13.9076 19.1823 13.9115 19.1697 13.9155 19.156C13.9784 18.9445 14.0401 18.6411 14.1392 18.1455L14.8721 14.481C14.8745 14.4691 14.8769 14.4569 14.8794 14.4443C14.9066 14.3066 14.941 14.1331 15.007 13.9648C15.0643 13.8187 15.1386 13.6798 15.2284 13.551C15.3318 13.4028 15.4571 13.278 15.5566 13.1789C15.5657 13.1699 15.5745 13.161 15.5831 13.1525L17.144 11.5916C17.1495 11.5861 17.1551 11.5805 17.1609 11.5747C17.2245 11.5109 17.3046 11.4306 17.396 11.358C17.4755 11.2948 17.5597 11.2378 17.6478 11.1875C17.7492 11.1296 17.8536 11.085 17.9364 11.0496C17.9439 11.0464 17.9512 11.0433 17.9583 11.0403L20.4527 9.97126C20.8341 9.80778 21.0573 9.71108 21.2105 9.62827C21.2187 9.62384 21.2264 9.61963 21.2334 9.61565C21.2283 9.60932 21.2228 9.60258 21.2168 9.59542C21.1053 9.46162 20.934 9.28895 20.6406 8.9955L15.4974 3.85237C15.204 3.55892 15.0313 3.38763 14.8975 3.2761C14.8904 3.27013 14.8836 3.26461 14.8773 3.2595C14.8733 3.26659 14.8691 3.27422 14.8647 3.28242C14.7819 3.43567 14.6852 3.65884 14.5217 4.04028L13.4527 6.53464C13.4496 6.54176 13.4465 6.54908 13.4433 6.55657C13.4079 6.6394 13.3634 6.74374 13.3055 6.84511C13.2551 6.93326 13.1981 7.01744 13.135 7.09693C13.0623 7.18835 12.982 7.26848 12.9182 7.33209C12.9125 7.33784 12.9068 7.34345 12.9014 7.34893L11.3405 8.90981C11.3319 8.9184 11.3231 8.92725 11.3141 8.9363C11.215 9.03579 11.0902 9.16111 10.9419 9.2645C10.8132 9.3543 10.6743 9.42863 10.5281 9.48595C10.3599 9.55195 10.1864 9.58629 10.0486 9.61356C10.0361 9.61604 10.0238 9.61846 10.0119 9.62084L6.34745 10.3537C5.85182 10.4529 5.54844 10.5146 5.33691 10.5774C5.32328 10.5815 5.31069 10.5853 5.29907 10.589C5.30668 10.5985 5.31501 10.6088 5.32411 10.6197C5.46525 10.7893 5.68345 11.0089 6.04086 11.3663L13.1266 18.4521Z" fill="currentColor"/>
</svg>
