<svg width="25" height="24" viewBox="0 0 25 24" fill="none" xmlns="http://www.w3.org/2000/svg">
<path fill-rule="evenodd" clip-rule="evenodd" d="M18.0645 3C16.9599 3 16.0645 3.89543 16.0645 5C16.0645 5.3473 16.153 5.67393 16.3087 5.95855C16.3189 5.97399 16.3287 5.9898 16.3381 6.00597C16.3475 6.02203 16.3564 6.03823 16.3648 6.05457C16.7177 6.62215 17.3469 7 18.0645 7C19.169 7 20.0645 6.10457 20.0645 5C20.0645 3.89543 19.169 3 18.0645 3ZM15.2225 7.81485C15.9474 8.54668 16.953 9 18.0645 9C20.2736 9 22.0645 7.20914 22.0645 5C22.0645 2.79086 20.2736 1 18.0645 1C15.8553 1 14.0645 2.79086 14.0645 5C14.0645 5.37702 14.1166 5.74185 14.2141 6.08768L8.90639 9.18515C8.18149 8.45332 7.17591 8 6.06445 8C3.85531 8 2.06445 9.79086 2.06445 12C2.06445 14.2091 3.85531 16 6.06445 16C7.17612 16 8.18187 15.5465 8.9068 14.8144L14.2154 17.9079C14.1171 18.255 14.0645 18.6214 14.0645 19C14.0645 21.2091 15.8553 23 18.0645 23C20.2736 23 22.0645 21.2091 22.0645 19C22.0645 16.7909 20.2736 15 18.0645 15C16.9547 15 15.9504 15.452 15.2258 16.1819L9.91495 13.0871C10.0123 12.7415 10.0645 12.3768 10.0645 12C10.0645 11.623 10.0123 11.2581 9.9148 10.9123L15.2225 7.81485ZM7.76415 10.9454C7.77253 10.9618 7.7814 10.978 7.79077 10.994C7.8002 11.0102 7.81002 11.026 7.82021 11.0414C7.97593 11.3261 8.06445 11.6527 8.06445 12C8.06445 12.3473 7.97593 12.6739 7.82021 12.9585C7.80991 12.9742 7.79998 12.9902 7.79044 13.0065C7.7812 13.0224 7.77243 13.0384 7.76415 13.0546C7.41125 13.6221 6.78198 14 6.06445 14C4.95988 14 4.06445 13.1046 4.06445 12C4.06445 10.8954 4.95988 10 6.06445 10C6.78198 10 7.41125 10.3779 7.76415 10.9454ZM16.2797 18.0964C16.3044 18.064 16.3274 18.0296 16.3485 17.9935C16.3687 17.9588 16.3865 17.9235 16.4021 17.8875C16.761 17.3523 17.3716 17 18.0645 17C19.169 17 20.0645 17.8954 20.0645 19C20.0645 20.1046 19.169 21 18.0645 21C16.9599 21 16.0645 20.1046 16.0645 19C16.0645 18.6749 16.142 18.3678 16.2797 18.0964Z" fill="currentColor"/>
</svg>
