<svg width="33" height="33" viewBox="0 0 33 33" fill="none" xmlns="http://www.w3.org/2000/svg">
<path d="M15.627 11.2422V28.2422H7.13477C6.30645 28.2422 5.63494 27.5705 5.63477 26.7422V11.2422H15.627Z" fill="currentColor"/>
<path d="M15.627 11.2422V28.2422H7.13477C6.30645 28.2422 5.63494 27.5705 5.63477 26.7422V11.2422H15.627Z" fill="currentColor"/>
<path d="M28.1211 11.2422V26.7422C28.1209 27.5705 27.4494 28.2422 26.6211 28.2422H18.127V11.2422H28.1211Z" fill="currentColor"/>
<path d="M28.1211 11.2422V26.7422C28.1209 27.5705 27.4494 28.2422 26.6211 28.2422H18.127V11.2422H28.1211Z" fill="currentColor"/>
<path d="M24.3525 6.25684L21.377 9.23926H12.3779L9.40234 6.25684L12.5 3.24023L16.877 7.62891L21.2539 3.24023L24.3525 6.25684Z" fill="currentColor"/>
<path d="M24.3525 6.25684L21.377 9.23926H12.3779L9.40234 6.25684L12.5 3.24023L16.877 7.62891L21.2539 3.24023L24.3525 6.25684Z" fill="currentColor"/>
</svg>
