<svg width="33" height="33" viewBox="0 0 33 33" fill="none" xmlns="http://www.w3.org/2000/svg">
<path d="M27.127 4.24023C27.9554 4.24023 28.627 4.90985 28.627 5.73828V26.7422C28.627 27.5706 27.9554 28.2402 27.127 28.2402H17.877V4.24023H27.127ZM4.62695 17.4902H15.377V28.2402H6.12695C5.29853 28.2402 4.62695 27.5687 4.62695 26.7402V17.4902ZM15.377 4.24023V14.9902H4.62695V5.74023C4.62695 4.91181 5.29853 4.24024 6.12695 4.24023H15.377Z" fill="currentColor"/>
<path d="M27.127 4.24023C27.9554 4.24023 28.627 4.90985 28.627 5.73828V26.7422C28.627 27.5706 27.9554 28.2402 27.127 28.2402H17.877V4.24023H27.127ZM4.62695 17.4902H15.377V28.2402H6.12695C5.29853 28.2402 4.62695 27.5687 4.62695 26.7402V17.4902ZM15.377 4.24023V14.9902H4.62695V5.74023C4.62695 4.91181 5.29853 4.24024 6.12695 4.24023H15.377Z" fill="currentColor"/>
</svg>
