<svg width="21" height="20" viewBox="0 0 21 20" fill="none" xmlns="http://www.w3.org/2000/svg">
<path d="M16.4111 10C16.4111 6.5022 13.5759 3.66699 10.0781 3.66699C6.58032 3.66699 3.74512 6.5022 3.74512 10C3.74512 13.4978 6.58032 16.333 10.0781 16.333V17.5C5.93599 17.5 2.57812 14.1421 2.57812 10C2.57812 5.85786 5.93599 2.5 10.0781 2.5C14.2203 2.5 17.5781 5.85786 17.5781 10C17.5781 14.1421 14.2203 17.5 10.0781 17.5V16.333C13.5759 16.333 16.4111 13.4978 16.4111 10Z" fill="#818DA2"/>
<path d="M10.6616 9.16667V13.3333H9.49463V9.16667H10.6616Z" fill="#818DA2"/>
<path d="M10.9115 7.5C10.9115 7.96024 10.5384 8.33333 10.0781 8.33333C9.61789 8.33333 9.24479 7.96024 9.24479 7.5C9.24479 7.03976 9.61789 6.66667 10.0781 6.66667C10.5384 6.66667 10.9115 7.03976 10.9115 7.5Z" fill="#818DA2"/>
</svg>
