<svg width="20" height="21" viewBox="0 0 20 21" fill="none" xmlns="http://www.w3.org/2000/svg">
<path fill-rule="evenodd" clip-rule="evenodd" d="M10 2.11523C14.489 2.11528 18.125 5.75124 18.125 10.2402C18.125 14.7292 14.489 18.3652 10 18.3652C5.511 18.3652 1.87504 14.7292 1.875 10.2402C1.875 5.75121 5.51098 2.11523 10 2.11523ZM10.1495 13.1571C9.71806 13.1571 9.36829 13.5069 9.36829 13.9384C9.36841 14.3697 9.71814 14.7196 10.1495 14.7196C10.5808 14.7195 10.9307 14.3696 10.9308 13.9384C10.9308 13.507 10.5809 13.1572 10.1495 13.1571ZM9.36829 6.49023V11.9071H10.9308V6.49023H9.36829Z" fill="currentColor"/>
</svg>
