<svg width="24" height="24" viewBox="0 0 24 24" fill="none" xmlns="http://www.w3.org/2000/svg">
<path fill-rule="evenodd" clip-rule="evenodd" d="M11.9928 3.71697C9.65285 1.67208 6.19239 1.25362 3.50509 3.54972C0.598301 6.03334 0.175971 10.2161 2.47459 13.174C3.34712 14.2968 5.05011 15.9835 6.68672 17.5283C8.34249 19.0912 9.99445 20.568 10.8091 21.2894L10.8246 21.3032C10.9012 21.3711 10.9966 21.4556 11.088 21.5244C11.1974 21.6068 11.3545 21.7092 11.5643 21.7718C11.8432 21.855 12.143 21.855 12.422 21.7718C12.6318 21.7092 12.7889 21.6068 12.8983 21.5244C12.9897 21.4556 13.0851 21.3711 13.1617 21.3032L13.1772 21.2894C13.9918 20.568 15.6438 19.0912 17.2996 17.5283C18.9362 15.9835 20.6392 14.2968 21.5117 13.174C23.8015 10.2275 23.4444 6.01244 20.4708 3.54095C17.7536 1.28252 14.33 1.6713 11.9928 3.71697ZM11.2332 5.78581C9.52816 3.79244 6.81788 3.34981 4.80429 5.07027C2.70097 6.86739 2.41795 9.84177 4.05379 11.9468C4.81689 12.9287 6.40668 14.5138 8.05953 16.0739C9.60258 17.5303 11.1461 18.9145 11.9931 19.6663C12.8402 18.9145 14.3837 17.5303 15.9268 16.0739C17.5796 14.5138 19.1694 12.9287 19.9325 11.9468C21.5772 9.8304 21.315 6.84326 19.1924 5.07904C17.1255 3.36111 14.4506 3.80125 12.7531 5.78581C12.5631 6.00792 12.2854 6.13579 11.9931 6.13579C11.7009 6.13579 11.4232 6.00792 11.2332 5.78581Z" fill="currentColor"/>
</svg>
