<svg width="21" height="20" viewBox="0 0 21 20" fill="none" xmlns="http://www.w3.org/2000/svg">
<path fill-rule="evenodd" clip-rule="evenodd" d="M16.4727 2.50627C16.4727 2.13808 16.1742 1.8396 15.806 1.8396C15.4378 1.8396 15.1393 2.13808 15.1393 2.50627V4.39865C13.7905 3.24985 12.0454 2.55575 10.1387 2.55575C5.85329 2.55575 2.38867 6.05698 2.38867 10.3644C2.38867 14.6718 5.85329 18.173 10.1387 18.173C14.4241 18.173 17.8887 14.6718 17.8887 10.3644C17.8887 9.99619 17.5902 9.69772 17.222 9.69772C16.8538 9.69772 16.5553 9.99619 16.5553 10.3644C16.5553 13.9458 13.6773 16.8397 10.1387 16.8397C6.60002 16.8397 3.72201 13.9458 3.72201 10.3644C3.72201 6.78298 6.60002 3.88908 10.1387 3.88908C11.7777 3.88908 13.274 4.50885 14.4094 5.53141H12.2643C11.8961 5.53141 11.5977 5.82989 11.5977 6.19808C11.5977 6.56627 11.8961 6.86475 12.2643 6.86475H15.806C16.1742 6.86475 16.4727 6.56627 16.4727 6.19808C16.4727 6.17771 16.4717 6.15756 16.47 6.13766C16.4717 6.11777 16.4727 6.09762 16.4727 6.07725V2.50627Z" fill="currentColor"/>
</svg>
