<svg width="29" height="28" viewBox="0 0 29 28" fill="none" xmlns="http://www.w3.org/2000/svg">
<path d="M9.14258 10.8105C10.5371 10.8105 11.6445 11.6354 11.8678 13.0527H10.8561C10.6966 12.2006 9.99022 11.7266 9.15169 11.7311C8.01251 11.7267 7.16927 12.6017 7.16471 14.2012C7.16927 15.8098 8.01707 16.6756 9.15169 16.6712C9.9811 16.6758 10.6829 16.2109 10.8561 15.3678L11.8678 15.377C11.6582 16.6803 10.5963 17.5918 9.14258 17.5918C7.42463 17.5917 6.17122 16.3111 6.17122 14.2012C6.17122 12.0913 7.43374 10.8107 9.14258 10.8105Z" fill="#101828"/>
<path fill-rule="evenodd" clip-rule="evenodd" d="M15.5273 10.8105C17.2318 10.8105 18.4987 12.0911 18.4987 14.2012C18.4987 16.3112 17.2318 17.5918 15.5273 17.5918C13.8094 17.5917 12.5469 16.3065 12.5469 14.2012C12.5469 12.0913 13.8094 10.8107 15.5273 10.8105ZM15.5273 11.7311C14.3882 11.7267 13.5449 12.5971 13.5404 14.2012C13.5449 15.8052 14.3882 16.6756 15.5273 16.6712C16.6576 16.6758 17.5007 15.8053 17.5052 14.2012C17.5007 12.597 16.6576 11.7266 15.5273 11.7311Z" fill="#101828"/>
<path d="M5.23698 17.5007H4.23438V10.9017H5.23698V17.5007Z" fill="#101828"/>
<path d="M23.7179 15.7324H23.7817V10.9017H24.7661V17.5007H23.8455L20.5005 12.679H20.4458V17.5007H19.4432V10.9017H20.3729L23.7179 15.7324Z" fill="#101828"/>
</svg>
