<svg width="20" height="21" viewBox="0 0 20 21" fill="none" xmlns="http://www.w3.org/2000/svg">
<path d="M9.66634 7.58203C9.66634 6.84565 9.06971 6.24902 8.33333 6.24902C7.59695 6.24902 7.00033 6.84565 7.00033 7.58203C7.00033 8.31841 7.59695 8.91504 8.33333 8.91504V10.082C6.95262 10.082 5.83333 8.96274 5.83333 7.58203C5.83333 6.20132 6.95262 5.08203 8.33333 5.08203C9.71405 5.08203 10.8333 6.20132 10.8333 7.58203C10.8333 8.96274 9.71405 10.082 8.33333 10.082V8.91504C9.06971 8.91504 9.66634 8.31841 9.66634 7.58203Z" fill="currentColor"/>
<path d="M12.9997 14.2487C12.9997 13.5123 12.403 12.9157 11.6667 12.9157C10.9303 12.9157 10.3337 13.5123 10.3337 14.2487C10.3337 14.9851 10.9303 15.5817 11.6667 15.5817V16.7487C10.286 16.7487 9.16667 15.6294 9.16667 14.2487C9.16667 12.868 10.286 11.7487 11.6667 11.7487C13.0474 11.7487 14.1667 12.868 14.1667 14.2487C14.1667 15.6294 13.0474 16.7487 11.6667 16.7487V15.5817C12.403 15.5817 12.9997 14.9851 12.9997 14.2487Z" fill="currentColor"/>
<path d="M6.66667 6.99854V8.16553H2.5V6.99854H6.66667Z" fill="currentColor"/>
<path d="M17.5 6.99854V8.16553H10V6.99854H17.5Z" fill="currentColor"/>
<path d="M10 13.6652V14.8322H2.5V13.6652H10Z" fill="currentColor"/>
<path d="M17.5 13.6652V14.8322H13.3333V13.6652H17.5Z" fill="currentColor"/>
</svg>
