<svg width="33" height="33" viewBox="0 0 33 33" fill="none" xmlns="http://www.w3.org/2000/svg">
<path d="M16.377 3.24023C23.5593 3.2403 29.377 9.05784 29.377 16.2402C29.3769 23.4226 23.5593 29.2402 16.377 29.2402C9.19456 29.2402 3.37702 23.4226 3.37695 16.2402C3.37695 9.0578 9.19452 3.24023 16.377 3.24023ZM9.52637 10.9453L10.5645 15.1289H9.34961V17.0293H11.0361L12.2383 21.8701H14.4473L16.375 14.4541L18.3027 21.8701H20.5117L21.7139 17.0293H23.4023V15.1289H22.1855L23.2236 10.9453H21.2666L19.3906 18.501L17.4258 10.9453H15.3242L13.3594 18.501L11.4834 10.9453H9.52637Z" fill="currentColor"/>
<path d="M16.377 3.24023C23.5593 3.2403 29.377 9.05784 29.377 16.2402C29.3769 23.4226 23.5593 29.2402 16.377 29.2402C9.19456 29.2402 3.37702 23.4226 3.37695 16.2402C3.37695 9.0578 9.19452 3.24023 16.377 3.24023ZM9.52637 10.9453L10.5645 15.1289H9.34961V17.0293H11.0361L12.2383 21.8701H14.4473L16.375 14.4541L18.3027 21.8701H20.5117L21.7139 17.0293H23.4023V15.1289H22.1855L23.2236 10.9453H21.2666L19.3906 18.501L17.4258 10.9453H15.3242L13.3594 18.501L11.4834 10.9453H9.52637Z" fill="currentColor"/>
</svg>
