<svg width="33" height="33" viewBox="0 0 33 33" fill="none" xmlns="http://www.w3.org/2000/svg">
<path d="M29.061 26.623C29.1294 27.495 28.4396 28.2402 27.5649 28.2402H4.68701C3.81199 28.2402 3.12289 27.4944 3.19189 26.6221L4.96533 4.24023H27.2974L29.061 26.623ZM9.56982 9.2207V10.791C9.57 14.4116 12.5048 17.3467 16.1255 17.3467C19.7461 17.3466 22.681 14.4116 22.6812 10.791V9.2207H20.3813V10.791C20.3812 13.1414 18.4759 15.0468 16.1255 15.0469C13.7751 15.0469 11.8698 13.1414 11.8696 10.791V9.2207H9.56982Z" fill="currentColor"/>
<path d="M29.061 26.623C29.1294 27.495 28.4396 28.2402 27.5649 28.2402H4.68701C3.81199 28.2402 3.12289 27.4944 3.19189 26.6221L4.96533 4.24023H27.2974L29.061 26.623ZM9.56982 9.2207V10.791C9.57 14.4116 12.5048 17.3467 16.1255 17.3467C19.7461 17.3466 22.681 14.4116 22.6812 10.791V9.2207H20.3813V10.791C20.3812 13.1414 18.4759 15.0468 16.1255 15.0469C13.7751 15.0469 11.8698 13.1414 11.8696 10.791V9.2207H9.56982Z" fill="currentColor"/>
</svg>
