<svg width="29" height="29" viewBox="0 0 29 29" fill="none" xmlns="http://www.w3.org/2000/svg">
<path d="M18.4747 9.56885C18.4747 7.37577 16.697 5.59742 14.504 5.59717C12.3108 5.59717 10.5323 7.37561 10.5323 9.56885C10.5326 11.7619 12.3109 13.5396 14.504 13.5396C16.6968 13.5393 18.4744 11.7617 18.4747 9.56885ZM20.4747 9.56885C20.4744 12.8663 17.8014 15.5393 14.504 15.5396C11.2063 15.5396 8.53256 12.8664 8.53231 9.56885C8.53231 6.27104 11.2062 3.59717 14.504 3.59717C17.8016 3.59742 20.4747 6.2712 20.4747 9.56885Z" fill="currentColor"/>
<path d="M14.5034 16.604C17.7276 16.6041 20.3943 17.6337 22.2642 19.3785C23.8034 20.8148 24.7608 22.6993 25.0522 24.7847H23.0269C22.7541 23.2481 22.0222 21.8877 20.8999 20.8404C19.4521 19.4895 17.2966 18.6041 14.5034 18.604C11.7103 18.604 9.55475 19.4895 8.10693 20.8404C6.9846 21.8877 6.2527 23.2481 5.97998 24.7847H3.95459C4.24587 22.6994 5.20267 20.8147 6.7417 19.3785C8.6116 17.6336 11.2791 16.604 14.5034 16.604Z" fill="currentColor"/>
</svg>
