<svg width="29" height="29" viewBox="0 0 29 29" fill="none" xmlns="http://www.w3.org/2000/svg">
<path d="M19.5018 12.4902C19.5018 8.76231 16.4798 5.74023 12.7518 5.74023C9.02391 5.74023 6.00183 8.76231 6.00183 12.4902C6.00183 16.2182 9.02391 19.2402 12.7518 19.2402V21.2402C7.91934 21.2402 4.00183 17.3227 4.00183 12.4902C4.00183 7.65774 7.91934 3.74023 12.7518 3.74023C17.5843 3.74023 21.5018 7.65774 21.5018 12.4902C21.5018 17.3227 17.5843 21.2402 12.7518 21.2402V19.2402C16.4798 19.2402 19.5018 16.2182 19.5018 12.4902Z" fill="currentColor"/>
<path d="M25.1259 23.4502L23.7118 24.8643L17.2948 18.4473L18.7089 17.0332L25.1259 23.4502Z" fill="currentColor"/>
</svg>
