<svg width="29" height="29" viewBox="0 0 29 29" fill="none" xmlns="http://www.w3.org/2000/svg">
<path d="M17.1246 14.2462C17.1244 12.7988 15.9505 11.6257 14.5031 11.6257C13.0558 11.6259 11.8828 12.7989 11.8826 14.2462C11.8826 15.6936 13.0557 16.8675 14.5031 16.8678C15.9506 16.8678 17.1246 15.6937 17.1246 14.2462ZM18.7573 14.2462C18.7573 16.5958 16.8527 18.5004 14.5031 18.5004C12.1536 18.5002 10.2488 16.5957 10.2488 14.2462C10.249 11.8968 12.1537 9.99215 14.5031 9.99194C16.8526 9.99194 18.7571 11.8967 18.7573 14.2462Z" fill="currentColor"/>
<path d="M16.5333 2.61353L18.7994 6.67407H23.5573L23.7931 7.08195L25.5909 10.2003L23.1049 14.246L25.5966 18.2929L25.354 18.7144L23.5618 21.8191H18.8051L16.539 25.8796H12.4694L10.2032 21.8191H5.44543L5.20959 21.4112L3.41174 18.2929L5.90116 14.246L3.41174 10.2003L5.20959 7.08195L5.44543 6.67407H10.1976L12.4637 2.61353H16.5333ZM11.1569 8.30672H6.38879L5.31213 10.1729L7.81978 14.246L7.5566 14.6744L5.31213 18.3191L6.38879 20.1864H11.1626L13.4275 24.2458H15.5797L17.8458 20.1864H22.6185L23.6951 18.3202L21.1886 14.2472L21.4506 13.8188L23.6894 10.1729L22.6139 8.30672H17.8413L17.6066 7.88859L15.5752 4.24731H13.423L11.1569 8.30672Z" fill="currentColor"/>
</svg>
