<svg width="24" height="24" viewBox="0 0 24 24" fill="none" xmlns="http://www.w3.org/2000/svg">
<path d="M2.21999 18.0592L10.6203 4.41863C11.2366 3.41775 12.7634 3.41775 13.3797 4.41863L21.78 18.0592C22.4012 19.0679 21.6331 20.3346 20.4003 20.3346H3.59973C2.36693 20.3346 1.59882 19.0679 2.21999 18.0592Z" fill="#F68511"/>
<circle cx="12" cy="16.8008" r="1" fill="white"/>
<path d="M10.8853 10.1969C10.8391 9.55016 11.3514 9 11.9998 9C12.6482 9 13.1605 9.55016 13.1143 10.197L12.8568 13.802C12.8247 14.2516 12.4506 14.6 11.9998 14.6C11.549 14.6 11.1749 14.2516 11.1428 13.802L10.8853 10.1969Z" fill="white"/>
</svg>
