<svg preserveAspectRatio="none" width="100%" height="100%" overflow="visible" style="display: block;" viewBox="0 0 95 33" fill="none" xmlns="http://www.w3.org/2000/svg">
<g id="Group 814380">
<g id="Exclude">
<path d="M58.1602 1C73.1602 1 73.4935 8.66667 72.1602 13.5C69.6602 20.5 60.6602 19.5 59.1602 20.5C57.9602 21.3 58.6636 23.2413 58.1602 24.5C56.1602 29.5 52.6602 27 52.6602 24.5L52.1602 2.5C52.1602 1 56.1602 1 58.1602 1ZM63.6602 8C60.6599 7.14156 58.8269 8.17744 58.6602 9.01074C57.1582 14.4997 61.659 13.9893 63.6602 13C65.4513 12.1145 67.6597 9.14443 63.6602 8Z" fill="var(--fill-0, #FFDD53)"/>
<path d="M72.1602 13.5L72.631 13.6682L72.6372 13.6508L72.6422 13.633L72.1602 13.5ZM59.1602 20.5L58.8828 20.084L58.8828 20.084L59.1602 20.5ZM58.1602 24.5L58.6244 24.6857L58.6244 24.6857L58.1602 24.5ZM52.6602 24.5H53.1603L53.16 24.4886L52.6602 24.5ZM52.1602 2.5L51.66 2.5L51.6603 2.51136L52.1602 2.5ZM63.6602 8L63.7977 7.51929L63.7977 7.51929L63.6602 8ZM58.6602 9.01074L59.1424 9.14271L59.147 9.12593L59.1504 9.10887L58.6602 9.01074ZM63.6602 13L63.8817 13.4482L63.8818 13.4482L63.6602 13ZM58.1602 1V1.5C65.5966 1.5 69.225 3.40201 70.8776 5.72716C72.5379 8.0632 72.331 11.0006 71.6782 13.367L72.1602 13.5L72.6422 13.633C73.3227 11.1661 73.6157 7.85346 71.6927 5.14784C69.762 2.43132 65.7237 0.5 58.1602 0.5V1ZM72.1602 13.5L71.6893 13.3318C70.5186 16.6097 67.8319 18.0372 65.1536 18.7676C63.8133 19.1332 62.4999 19.3169 61.4019 19.4738C60.8592 19.5513 60.3581 19.6238 59.9451 19.7097C59.5489 19.7921 59.1583 19.9003 58.8828 20.084L59.1602 20.5L59.4375 20.916C59.537 20.8497 59.7558 20.7704 60.1487 20.6887C60.5247 20.6106 60.9924 20.5424 61.5434 20.4637C62.6329 20.3081 64.007 20.1168 65.4167 19.7324C68.2384 18.9628 71.3017 17.3903 72.631 13.6682L72.1602 13.5ZM59.1602 20.5L58.8828 20.084C58.0607 20.632 57.9368 21.5573 57.8996 22.3031C57.8899 22.4969 57.8859 22.6941 57.8815 22.8804C57.8771 23.0698 57.8722 23.2501 57.8611 23.4248C57.8386 23.7781 57.7924 24.0731 57.6959 24.3143L58.1602 24.5L58.6244 24.6857C58.7796 24.2976 58.8343 23.8779 58.859 23.4882C58.8716 23.2914 58.8768 23.0931 58.8813 22.904C58.8858 22.7118 58.8895 22.5304 58.8983 22.3529C58.9352 21.6134 59.0596 21.168 59.4375 20.916L59.1602 20.5ZM58.1602 24.5L57.6959 24.3143C57.2172 25.5112 56.6722 26.1974 56.1689 26.5523C55.6797 26.8973 55.2092 26.9461 54.794 26.8307C53.9122 26.5858 53.1602 25.5545 53.1602 24.5H52.6602H52.1602C52.1602 25.9455 53.1581 27.4142 54.5263 27.7943C55.2362 27.9914 56.0156 27.884 56.7452 27.3696C57.4606 26.8651 58.1031 25.9888 58.6244 24.6857L58.1602 24.5ZM52.6602 24.5L53.16 24.4886L52.66 2.48864L52.1602 2.5L51.6603 2.51136L52.1603 24.5114L52.6602 24.5ZM52.1602 2.5H52.6602C52.6602 2.39711 52.7134 2.24969 53.0468 2.07656C53.3793 1.90394 53.8767 1.77312 54.4843 1.68197C55.6908 1.50099 57.1524 1.5 58.1602 1.5V1V0.5C57.168 0.5 55.6295 0.499006 54.336 0.693032C53.6936 0.789382 53.066 0.939808 52.586 1.18906C52.1069 1.43781 51.6602 1.85289 51.6602 2.5H52.1602ZM63.6602 8L63.7977 7.51929C62.2223 7.06853 60.9151 7.10416 59.9541 7.39199C59.475 7.53552 59.0735 7.74453 58.7706 7.99571C58.4735 8.24215 58.2413 8.55584 58.1699 8.91261L58.6602 9.01074L59.1504 9.10887C59.1624 9.04899 59.2218 8.92071 59.4091 8.76538C59.5906 8.6148 59.8661 8.46224 60.2411 8.34994C60.9884 8.12612 62.0978 8.07303 63.5226 8.48071L63.6602 8ZM58.6602 9.01074L58.1779 8.87877C57.7889 10.3002 57.7659 11.4094 58.0532 12.2505C58.3491 13.1168 58.9545 13.6406 59.6746 13.9043C60.3745 14.1605 61.1696 14.1688 61.8971 14.0605C62.6291 13.9515 63.3354 13.7183 63.8817 13.4482L63.6602 13L63.4386 12.5518C62.9843 12.7764 62.3777 12.9779 61.7498 13.0714C61.1176 13.1655 60.5061 13.1438 60.0184 12.9652C59.5509 12.794 59.1876 12.4781 58.9995 11.9273C58.8028 11.3512 58.7804 10.4658 59.1424 9.14271L58.6602 9.01074ZM63.6602 13L63.8818 13.4482C64.387 13.1984 64.9082 12.8097 65.3422 12.3489C65.7739 11.8906 66.147 11.3315 66.3135 10.7306C66.4842 10.1146 66.437 9.44515 66.0047 8.84673C65.586 8.26718 64.854 7.82155 63.7977 7.51929L63.6602 8L63.5226 8.48071C64.4661 8.75066 64.9579 9.10545 65.1941 9.43233C65.4166 9.74034 65.4552 10.0833 65.3498 10.4636C65.2403 10.8589 64.9754 11.2799 64.6143 11.6633C64.2554 12.0442 63.8289 12.3588 63.4386 12.5518L63.6602 13Z" fill="var(--stroke-0, #FFDD53)"/>
</g>
<path id="Vector 1" d="M12.1599 31C12.1599 33.0007 7.66016 33.0007 6.65988 31L2.99341 18.0007L1.15988 11.5C0.160028 7.00069 4.07435 6.83356 6.65988 8.50069L21.6599 19.5007C21.6599 19.5007 19.6599 7.50046 19.6599 5C19.6599 2.50062 23.6602 2.00009 24.6602 5.00057L27.1602 27.5007C27.1602 27.5007 26.6602 30.5 24.1602 30.0007C21.6602 29.5014 14.5599 23.1 12.1599 21.5C9.75988 19.9 9.3267 20.8333 9.66003 21.5L12.1599 31Z" fill="var(--fill-0, #FFDD53)" stroke="var(--stroke-0, #FFDD53)"/>
<g id="Exclude_2">
<path d="M40.1592 2.49805C45.6441 2.49759 47.1512 7.96878 47.1592 7.99805C50.3592 18.398 48.6599 22.0718 44.6592 25.498C40.6584 28.924 32.6585 26.9978 31.6592 17.498C30.6599 7.9983 34.6598 2.49876 40.1592 2.49805ZM39.9824 8C38.635 8.00022 37.5263 8.82527 36.834 10.1973C36.1472 11.5585 35.843 13.4916 36.0498 15.8672C36.2607 18.2893 37.2234 19.864 38.4717 20.5771C39.7279 21.2947 41.191 21.0799 42.1602 20.0771C43.0145 19.193 43.6561 18.2376 43.8896 16.8154C44.1184 15.4218 43.9473 13.6237 43.2949 11.0615L43.2881 11.0322C43.282 11.0081 43.2726 10.9743 43.2607 10.9326C43.237 10.8493 43.2016 10.7329 43.1514 10.5947C43.0513 10.3195 42.8912 9.94827 42.6514 9.57324C42.1735 8.82605 41.3313 7.99987 39.9824 8Z" fill="var(--fill-0, #FFDD53)"/>
<path d="M40.1592 2.49805L40.1591 1.99805L40.1591 1.99805L40.1592 2.49805ZM47.1592 7.99805L46.677 8.13024L46.679 8.1377L46.6813 8.14509L47.1592 7.99805ZM44.6592 25.498L44.9844 25.8778L44.9844 25.8778L44.6592 25.498ZM31.6592 17.498L31.1619 17.5504L31.1619 17.5504L31.6592 17.498ZM39.9824 8L39.9824 7.5L39.9823 7.5L39.9824 8ZM36.834 10.1973L36.3876 9.97202L36.3876 9.97205L36.834 10.1973ZM36.0498 15.8672L35.5517 15.9105L35.5517 15.9106L36.0498 15.8672ZM38.4717 20.5771L38.2237 21.0113L38.2237 21.0113L38.4717 20.5771ZM42.1602 20.0771L42.5197 20.4246L42.5197 20.4246L42.1602 20.0771ZM43.8896 16.8154L44.383 16.8964L44.383 16.8964L43.8896 16.8154ZM43.2949 11.0615L42.8079 11.1752L42.8104 11.1849L43.2949 11.0615ZM43.2881 11.0322L43.7751 10.9186L43.7728 10.9094L43.2881 11.0322ZM43.2607 10.9326L43.7416 10.7956L43.7416 10.7956L43.2607 10.9326ZM43.1514 10.5947L43.6213 10.4239L43.6213 10.4238L43.1514 10.5947ZM42.6514 9.57324L43.0726 9.3039L43.0726 9.30387L42.6514 9.57324ZM40.1592 2.49805L40.1592 2.99805C42.7074 2.99784 44.3219 4.25884 45.3179 5.54329C46.3235 6.84022 46.6806 8.14353 46.677 8.13024L47.1592 7.99805L47.6414 7.86586C47.6297 7.8233 47.2293 6.37638 46.1081 4.93052C44.9773 3.47216 43.0958 1.9978 40.1591 1.99805L40.1592 2.49805ZM47.1592 7.99805L46.6813 8.14509C48.2732 13.3189 48.6197 16.7414 48.119 19.2659C47.6243 21.7604 46.2889 23.444 44.3339 25.1183L44.6592 25.498L44.9844 25.8778C47.0302 24.1258 48.5448 22.2595 49.0999 19.4605C49.649 16.6916 49.2451 13.0772 47.6371 7.851L47.1592 7.99805ZM44.6592 25.498L44.334 25.1183C42.4944 26.6935 39.7078 27.0562 37.2473 25.8931C34.8066 24.7395 32.6411 22.0532 32.1564 17.4457L31.6592 17.498L31.1619 17.5504C31.6766 22.4427 34.0107 25.4694 36.8199 26.7972C39.6094 28.1158 42.8231 27.7285 44.9844 25.8778L44.6592 25.498ZM31.6592 17.498L32.1564 17.4457C31.6643 12.7674 32.4107 9.13716 33.8991 6.69621C35.3783 4.27027 37.5979 2.99838 40.1592 2.99805L40.1592 2.49805L40.1591 1.99805C37.2211 1.99843 34.691 3.47666 33.0453 6.1756C31.4087 8.85954 30.6548 12.729 31.1619 17.5504L31.6592 17.498ZM39.9824 8L39.9823 7.5C38.3977 7.50026 37.1406 8.47977 36.3876 9.97202L36.834 10.1973L37.2804 10.4225C37.912 9.17078 38.8723 8.50019 39.9825 8.5L39.9824 8ZM36.834 10.1973L36.3876 9.97205C35.6452 11.4435 35.34 13.4783 35.5517 15.9105L36.0498 15.8672L36.5479 15.8238C36.3461 13.5049 36.6492 11.6735 37.2804 10.4225L36.834 10.1973ZM36.0498 15.8672L35.5517 15.9106C35.7716 18.4356 36.7874 20.1908 38.2237 21.0113L38.4717 20.5771L38.7197 20.143C37.6595 19.5373 36.7499 18.1429 36.5479 15.8238L36.0498 15.8672ZM38.4717 20.5771L38.2237 21.0113C39.6756 21.8407 41.3894 21.5941 42.5197 20.4246L42.1602 20.0771L41.8006 19.7297C40.9926 20.5657 39.7803 20.7488 38.7197 20.143L38.4717 20.5771ZM42.1602 20.0771L42.5197 20.4246C43.4204 19.4925 44.1282 18.4488 44.383 16.8964L43.8896 16.8154L43.3963 16.7344C43.1841 18.0265 42.6086 18.8934 41.8006 19.7297L42.1602 20.0771ZM43.8896 16.8154L44.383 16.8964C44.6284 15.4013 44.4378 13.5237 43.7795 10.9382L43.2949 11.0615L42.8104 11.1849C43.4568 13.7236 43.6083 15.4422 43.3962 16.7345L43.8896 16.8154ZM43.2949 11.0615L43.7818 10.9479L43.775 10.9186L43.2881 11.0322L42.8012 11.1458L42.808 11.1751L43.2949 11.0615ZM43.2881 11.0322L43.7728 10.9094C43.7647 10.8776 43.7536 10.8377 43.7416 10.7956L43.2607 10.9326L42.7799 11.0696C42.7916 11.1108 42.7992 11.1386 42.8034 11.155L43.2881 11.0322ZM43.2607 10.9326L43.7416 10.7956C43.7155 10.7041 43.6766 10.576 43.6213 10.4239L43.1514 10.5947L42.6815 10.7656C42.7267 10.8899 42.7585 10.9946 42.7799 11.0696L43.2607 10.9326ZM43.1514 10.5947L43.6213 10.4238C43.5126 10.1251 43.3376 9.71836 43.0726 9.3039L42.6514 9.57324L42.2301 9.84259C42.4447 10.1782 42.5899 10.5139 42.6815 10.7656L43.1514 10.5947ZM42.6514 9.57324L43.0726 9.30387C42.5468 8.48168 41.5699 7.49984 39.9824 7.5L39.9824 8L39.9825 8.5C41.0927 8.49989 41.8003 9.17041 42.2301 9.84262L42.6514 9.57324Z" fill="var(--stroke-0, #FFDD53)"/>
</g>
<path id="Vector 367" d="M92.1591 7.00067L80.6591 4.00067C74.9091 2.50067 73.6594 15.0007 72.6594 22.0007C71.6594 29.0007 73.6594 26.5007 80.6591 30.2507C86.2588 33.2507 88.3258 32.0007 88.6594 31.0007C91.6598 26.5007 82.6591 24.5007 80.6591 23.5007C79.0591 22.7007 79.1592 21.3118 80.6591 21C86.1592 21 86.517 22.5 87.6591 21.5007C91.6591 18.0007 88.6591 16.0007 84.6591 15.0007C81.4591 14.2007 81.3257 12.334 81.6591 11.5007C82.0591 9.90067 84.4924 10.5007 85.6591 11.0007C88.8591 11.8007 91.3257 11.6673 92.1591 11.5007C95.7591 9.90067 93.6591 7.834 92.1591 7.00067Z" fill="var(--fill-0, #FFDD53)" stroke="var(--stroke-0, #FFDD53)"/>
</g>
</svg>
