<svg width="25" height="25" viewBox="0 0 25 25" fill="none" xmlns="http://www.w3.org/2000/svg">
<path d="M15.3883 10.9485V7.41919C15.3883 5.82559 14.0961 4.53367 12.5025 4.53345C10.9088 4.53345 9.61677 5.82545 9.61677 7.41919V10.9485C9.61693 12.5421 10.9089 13.8342 12.5025 13.8342V15.2336L12.2818 15.2288C10.0904 15.1178 8.33355 13.3605 8.22224 11.1692L8.21638 10.9485V7.41919C8.21638 5.05225 10.1356 3.13306 12.5025 3.13306L12.7222 3.13892C14.9869 3.25351 16.7877 5.12609 16.7877 7.41919V10.9485L16.7818 11.1692C16.6668 13.4333 14.7951 15.2334 12.5025 15.2336V13.8342C14.096 13.834 15.3881 12.5419 15.3883 10.9485Z" fill="#101828"/>
<path d="M13.2023 17.7428V21.3473H11.8019V17.7428H13.2023Z" fill="#101828"/>
<path d="M12.5017 18.8331C11.5095 18.8331 10.5268 18.6376 9.61011 18.258L9.27026 18.1066C8.48702 17.736 7.77196 17.2333 7.15796 16.6193L6.9021 16.3507C6.3202 15.7086 5.85261 14.9704 5.52026 14.1681L5.38647 13.8214C5.09454 13.0054 4.94507 12.144 4.94507 11.2755H6.34448C6.34448 11.9831 6.46698 12.6849 6.70483 13.3497L6.81323 13.632C7.08397 14.2856 7.46517 14.8872 7.93921 15.4103L8.14819 15.63C8.64846 16.1302 9.23074 16.5401 9.8689 16.8419L10.1453 16.964C10.8922 17.2734 11.6932 17.4327 12.5017 17.4328C13.2093 17.4328 13.9111 17.3112 14.5759 17.0734L14.8582 16.964C15.5119 16.6932 16.1133 16.3122 16.6365 15.838L16.8562 15.63C17.3564 15.1298 17.7662 14.5474 18.0681 13.9093L18.1902 13.632C18.4996 12.885 18.6589 12.0841 18.6589 11.2755H20.0593C20.0593 12.2679 19.8639 13.2512 19.4841 14.1681L19.3328 14.508C18.9622 15.2911 18.4594 16.0054 17.8455 16.6193L17.5769 16.8761C16.9348 17.458 16.1965 17.9256 15.3943 18.258L15.0476 18.3917C14.2316 18.6836 13.3702 18.8331 12.5017 18.8331Z" fill="#101828"/>
</svg>
