<svg width="24" height="18" viewBox="0 0 24 18" fill="none" xmlns="http://www.w3.org/2000/svg">
<path d="M12.0038 17.2644C12.0038 17.2592 12.008 17.255 12.0132 17.255L21.4546 17.255C22.5592 17.255 23.4546 16.3596 23.4546 15.255L23.4546 2.72608C23.4546 1.62151 22.5592 0.726074 21.4546 0.726074L11.9963 0.726074L2.54554 0.726073C1.44097 0.726073 0.545544 1.6215 0.545544 2.72607L0.545543 15.2738C0.545543 16.3784 1.44097 17.2738 2.54554 17.2738L11.9944 17.2738C11.9996 17.2738 12.0038 17.2696 12.0038 17.2644Z" fill="#C0C9D3"/>
<rect x="3.72241" y="5.18066" width="7" height="7.63636" fill="white"/>
<path d="M5.31201 7.72583C5.31201 8.78019 6.16706 9.63497 7.22177 9.63497C8.27648 9.63497 9.13153 8.78019 9.13153 7.72583H5.31201Z" fill="#4B5362"/>
<path d="M9.13153 7.72603C9.13153 6.67167 8.27648 5.81689 7.22177 5.81689C6.16706 5.81689 5.31201 6.67167 5.31201 7.72603H9.13153Z" fill="#4B5362"/>
<path d="M13.9092 7.25244H17.0911H20.273" stroke="white" stroke-width="1.5" stroke-miterlimit="10"/>
<path d="M7.22168 10.2715C8.95948 10.2715 10.4056 11.3674 10.7207 12.8174H3.72363C4.03874 11.3676 5.48425 10.2718 7.22168 10.2715Z" fill="#4B5362"/>
<path d="M13.9092 10.7488H17.0911H20.273" stroke="white" stroke-width="1.5" stroke-miterlimit="10"/>
</svg>
