<svg width="25" height="25" viewBox="0 0 25 25" fill="none" xmlns="http://www.w3.org/2000/svg">
<path d="M14.75 12.2453C14.7498 11.0046 13.7436 9.99916 12.5029 9.99916C11.2624 9.99934 10.257 11.0047 10.2568 12.2453C10.2568 13.4859 11.2623 14.4921 12.5029 14.4923C13.7437 14.4923 14.75 13.486 14.75 12.2453ZM16.1494 12.2453C16.1494 14.2592 14.5169 15.8917 12.5029 15.8917C10.4891 15.8916 8.85645 14.2591 8.85645 12.2453C8.85662 10.2315 10.4892 8.59895 12.5029 8.59877C14.5168 8.59877 16.1492 10.2314 16.1494 12.2453Z" fill="#101828"/>
<path d="M14.2432 2.27441L16.1855 5.75488H20.2637L20.4658 6.10449L22.0068 8.77734L19.876 12.2451L22.0117 15.7139L21.8037 16.0752L20.2676 18.7363H16.1904L14.248 22.2168H10.7598L8.81738 18.7363H4.73926L4.53711 18.3867L2.99609 15.7139L5.12988 12.2451L2.99609 8.77734L4.53711 6.10449L4.73926 5.75488H8.8125L10.7549 2.27441H14.2432ZM9.63477 7.1543H5.54785L4.625 8.75391L6.77441 12.2451L6.54883 12.6123L4.625 15.7363L5.54785 17.3369H9.63965L11.5811 20.8164H13.4258L15.3682 17.3369H19.459L20.3818 15.7373L18.2334 12.2461L18.458 11.8789L20.377 8.75391L19.4551 7.1543H15.3643L15.1631 6.7959L13.4219 3.6748H11.5771L9.63477 7.1543Z" fill="#101828"/>
</svg>
