<svg preserveAspectRatio="none" width="100%" height="100%" overflow="visible" style="display: block;" viewBox="0 0 25 9" fill="none" xmlns="http://www.w3.org/2000/svg">
<path id="Vector" d="M24.3486 3.25781L22.7197 4.58203L22.7109 4.59082C22.7063 4.59459 22.7 4.60014 22.6934 4.60547C22.68 4.6161 22.6618 4.62997 22.6406 4.64648C22.5982 4.67958 22.5404 4.72415 22.4678 4.77832C22.3214 4.88744 22.1139 5.03651 21.8525 5.21191C21.3306 5.56209 20.5833 6.0239 19.6582 6.4834C17.8262 7.39331 15.1936 8.34932 12.1758 8.34961C9.15732 8.34961 6.52269 7.39347 4.69043 6.4834C3.76536 6.0239 3.01799 5.56209 2.49609 5.21191C2.23476 5.03656 2.02717 4.88742 1.88086 4.77832C1.80821 4.72414 1.75041 4.67957 1.70801 4.64648C1.68678 4.62992 1.66863 4.61612 1.65527 4.60547C1.64859 4.60014 1.64238 4.59459 1.6377 4.59082L1.62891 4.58203L0 3.25781L2.64844 0L4.27441 1.32129L4.29199 1.33594C4.31135 1.35104 4.34467 1.37711 4.3916 1.41211C4.48693 1.48319 4.63793 1.59208 4.83691 1.72558C5.23616 1.99344 5.82593 2.35727 6.55957 2.72168C8.04531 3.45957 10.0246 4.14844 12.1758 4.14844C14.3264 4.14815 16.3037 3.45938 17.7891 2.72168C18.5226 2.35731 19.1125 1.99343 19.5117 1.72558C19.7107 1.59208 19.8617 1.48319 19.957 1.41211C20.0039 1.37713 20.0372 1.35107 20.0566 1.33594L20.0742 1.32129L20.0713 1.32422L21.7002 0L24.3486 3.25781Z" fill="var(--fill-0, #E53838)"/>
</svg>
