<svg preserveAspectRatio="none" width="100%" height="100%" overflow="visible" style="display: block;" viewBox="0 0 24 24" fill="none" xmlns="http://www.w3.org/2000/svg">
<g id="orgci_48_088">
<path id="sss" d="M12 0C5.3717 0 0 5.3717 0 12C0 18.6283 5.3717 24 12 24C18.6283 24 24 18.6283 24 12C24 5.3717 18.6261 0 12 0ZM12.2518 21.801C10.8169 22.0037 8.47976 21.6383 6.89566 20.6379C5.50984 19.7623 4.68103 18.6662 4.14631 17.5544C3.60045 16.4181 3.33977 15.039 3.92351 15.1081C4.19755 15.1392 4.43149 15.6584 4.95953 16.3312C5.32046 16.7924 5.65243 17.1801 5.90197 17.2336C6.01337 17.2581 6.10694 17.2068 6.18715 17.0553C6.33643 16.7701 6.53695 16.2287 6.89788 15.7898C7.18975 15.4534 7.53955 15.2974 7.7423 16.1173C7.84033 16.5273 7.91831 16.9462 7.9651 17.3138C8.02971 17.8329 8.06313 18.1426 8.2436 18.2317C8.41515 18.3164 8.70925 18.2072 9.18158 18.0312C9.52024 17.9042 9.95693 17.7438 10.5072 17.5856C11.0152 17.4408 11.3361 17.5165 11.0108 18.303C10.857 18.6751 10.7011 18.987 10.153 19.7779C10.0572 19.9161 10.075 20.0542 10.1953 20.1745C10.378 20.3572 10.7947 20.5778 11.2558 20.7783C11.6212 20.9365 12.0579 21.0746 12.3476 21.1571C12.7999 21.2863 12.7107 21.743 12.2562 21.8054L12.2518 21.801ZM18.41 19.2209C17.9621 19.9473 17.0264 20.7338 15.8901 21.2573C15.7185 21.3353 15.5336 21.3108 15.4868 21.1704C15.4467 21.0479 15.5425 20.9098 15.6561 20.7761C17.1355 18.8556 16.0371 17.0977 13.6487 15.7319C11.8841 14.7226 10.7612 14.1433 9.46008 13.3769C5.64575 11.1311 4.90828 9.17267 4.75901 8.01634C4.38247 5.09098 6.80208 2.90085 9.28853 2.37282C9.36428 2.35722 9.56257 2.32603 9.62718 2.4909C9.69179 2.65577 9.54475 2.77609 9.45785 2.82956C8.34608 3.44226 7.25214 4.74118 7.37245 6.18492C7.43929 6.99146 7.78463 8.15225 9.96807 9.70739C11.2848 10.6476 12.9001 11.4185 16.153 13.368C19.5908 15.4289 19.1987 17.9421 18.4122 19.2232L18.41 19.2209ZM18.9469 8.24582C18.1626 9.20609 17.3762 8.84961 16.7724 7.49722C16.3958 6.6528 15.899 6.45006 15.5492 6.67063C15.1682 6.91125 15.3197 7.49053 15.7453 8.1567C16.0238 8.59339 15.899 9.10583 15.6094 9.40884C15.3041 9.72744 14.8051 9.85444 14.2614 9.73413C13.2945 9.52024 12.3431 8.22577 13.0382 5.39621C13.319 4.25325 12.7709 3.76532 12.4233 3.3264C12.2495 3.10583 12.2273 2.97438 12.2919 2.88526C12.3609 2.78945 12.5214 2.78277 12.8065 2.84293C13.1786 2.92091 13.7312 3.11251 14.1812 3.18158C14.4798 3.22837 14.8184 3.24174 15.1727 3.22837C16.1374 3.19049 16.8481 3.33977 17.5767 3.70071C18.811 4.31118 18.938 5.36502 18.2518 5.28036C18.0134 5.25139 17.7081 5.07092 17.4541 4.94838C17.2848 4.86595 17.1378 4.83921 17.0308 4.91719C16.9306 4.99072 16.886 5.14445 16.9573 5.29595C17.111 5.61901 17.6302 5.78611 18.332 5.97995C19.5618 6.3186 19.5886 7.45934 18.9447 8.24805L18.9469 8.24582Z" fill="var(--fill-0, #0046FF)"/>
<path id="sss_2" d="M12.2494 21.8006C10.8146 22.0033 8.47741 21.6379 6.8933 20.6375C5.50748 19.7619 4.67867 18.6658 4.14395 17.554C3.59809 16.4177 3.33741 15.0386 3.92115 15.1077C4.19519 15.1388 4.42913 15.658 4.95717 16.3308C5.3181 16.792 5.65007 17.1797 5.89961 17.2332C6.01101 17.2577 6.10459 17.2064 6.18479 17.0549C6.33407 16.7697 6.53459 16.2283 6.89553 15.7894C7.18739 15.453 7.53719 15.297 7.73994 16.1169C7.83797 16.5269 7.91595 16.9458 7.96274 17.3134C8.02735 17.8325 8.06077 18.1422 8.24124 18.2313C8.41279 18.316 8.70689 18.2068 9.17923 18.0308C9.51788 17.9038 9.95457 17.7434 10.5049 17.5852C11.0129 17.4404 11.3337 17.5161 11.0084 18.3026C10.8547 18.6747 10.6987 18.9866 10.1506 19.7775C10.0548 19.9157 10.0727 20.0538 10.193 20.1741C10.3757 20.3568 10.7923 20.5774 11.2535 20.7779C11.6189 20.9361 12.0556 21.0742 12.3452 21.1567C12.7975 21.2859 12.7084 21.7426 12.2539 21.805L12.2494 21.8006ZM18.4076 19.2205C17.9598 19.9469 17.024 20.7333 15.8877 21.2569C15.7162 21.3349 15.5312 21.3104 15.4845 21.17C15.4444 21.0475 15.5402 20.9094 15.6538 20.7757C17.1332 18.8551 16.0348 17.0973 13.6464 15.7315C11.8818 14.7222 10.7589 14.1429 9.45773 13.3765C5.64339 11.1307 4.90592 9.17226 4.75665 8.01593C4.38012 5.09057 6.79972 2.90045 9.28617 2.37241C9.36192 2.35682 9.56021 2.32562 9.62483 2.4905C9.68944 2.65537 9.54239 2.77568 9.4555 2.82915C8.34373 3.44185 7.24978 4.74077 7.37009 6.18452C7.43693 6.99105 7.78227 8.15184 9.96571 9.70698C11.2825 10.6472 12.8978 11.4181 16.1506 13.3676C19.5884 15.4285 19.1963 17.9417 18.4098 19.2228L18.4076 19.2205ZM18.9445 8.24542C18.1603 9.20568 17.3738 8.8492 16.77 7.49681C16.3935 6.6524 15.8966 6.44965 15.5468 6.67022C15.1659 6.91085 15.3174 7.49012 15.7429 8.1563C16.0214 8.59298 15.8966 9.10542 15.607 9.40843C15.3018 9.72703 14.8027 9.85403 14.2591 9.73372C13.2921 9.51983 12.3408 8.22536 13.0359 5.39581C13.3166 4.25284 12.7685 3.76491 12.421 3.326C12.2472 3.10542 12.2249 2.97397 12.2895 2.88485C12.3586 2.78905 12.519 2.78236 12.8042 2.84252C13.1763 2.9205 13.7288 3.11211 14.1789 3.18118C14.4774 3.22796 14.8161 3.24133 15.1703 3.22796C16.135 3.19009 16.8458 3.33936 17.5743 3.7003C18.8086 4.31077 18.9356 5.36461 18.2494 5.27995C18.011 5.25099 17.7058 5.07052 17.454 4.94798C17.2847 4.86554 17.1376 4.83881 17.0307 4.91679C16.9304 4.99031 16.8859 5.14404 16.9572 5.29555C17.1109 5.61861 17.63 5.78571 18.3318 5.97954C19.5617 6.3182 19.5884 7.45893 18.9445 8.24764V8.24542Z" fill="var(--fill-0, white)"/>
</g>
</svg>
