<svg width="25" height="25" viewBox="0 0 25 25" fill="none" xmlns="http://www.w3.org/2000/svg">
<path d="M12.5156 3.69043C9.12739 3.69043 6.37676 6.40376 6.30666 9.77637V14.499L6.27151 14.6055L5.46584 17.0771H12.5156V18.4766H5.46682C4.51698 18.4763 3.84002 17.5493 4.13479 16.6436L4.90627 14.2754V9.7627L4.92287 9.37793C5.19494 5.42019 8.48638 2.29004 12.5156 2.29004V3.69043Z" fill="#101828"/>
<path d="M9.13967 18.7631C9.13967 18.5596 9.16356 18.3663 9.19436 18.1918L10.5733 18.4359C10.5513 18.5605 10.5401 18.6674 10.5401 18.7631C10.5402 19.8814 11.45 20.7914 12.5684 20.7914C13.6867 20.7914 14.5965 19.8814 14.5967 18.7631C14.5967 18.6674 14.5855 18.5605 14.5635 18.4359L15.9424 18.1918C15.9732 18.3663 15.9971 18.5596 15.9971 18.7631C15.9969 20.6546 14.4599 22.1908 12.5684 22.1908C10.6768 22.1908 9.13985 20.6546 9.13967 18.7631Z" fill="#101828"/>
<path d="M12.5 3.69043C15.8883 3.69043 18.6389 6.40376 18.709 9.77637V14.499L18.7442 14.6055L19.5498 17.0771H12.5V18.4766H19.5488C20.4987 18.4763 21.1756 17.5493 20.8809 16.6436L20.1094 14.2754V9.7627L20.0928 9.37793C19.8207 5.42019 16.5293 2.29004 12.5 2.29004V3.69043Z" fill="#101828"/>
</svg>
