<svg width="25" height="25" viewBox="0 0 25 25" fill="none" xmlns="http://www.w3.org/2000/svg">
<path fill-rule="evenodd" clip-rule="evenodd" d="M15.207 7.50049C18.4997 7.5005 21.1696 10.1698 21.1699 13.4624L21.1621 13.77C21.0974 15.0449 20.6311 16.2135 19.8887 17.1538L22.709 19.9741L21.7188 20.9644L18.8994 18.145C17.8839 18.9469 16.6013 19.4253 15.207 19.4253L14.9004 19.4175C11.7502 19.2577 9.24512 16.6523 9.24512 13.4624C9.24513 13.2863 9.25456 13.1122 9.26953 12.9399H3.93066V11.5396H9.56445C10.3648 9.1909 12.5876 7.50068 15.207 7.50049ZM15.207 8.90088C12.6877 8.90113 10.6458 10.9431 10.6455 13.4624C10.6455 15.982 12.6875 18.0247 15.207 18.0249C17.7267 18.0249 19.7695 15.9821 19.7695 13.4624C19.7692 10.9429 17.7265 8.9009 15.207 8.90088Z" fill="#101828"/>
<path d="M9.24512 20.6548H3.93066V19.2544H9.24512V20.6548Z" fill="#101828"/>
<path d="M21.0732 5.22607H3.93066V3.82568H21.0732V5.22607Z" fill="#101828"/>
</svg>
