<svg width="25" height="25" viewBox="0 0 25 25" fill="none" xmlns="http://www.w3.org/2000/svg">
<path d="M21.502 21.2402L16.1016 18.2402H3.50195V4.24023H21.502V21.2402ZM4.90234 16.8398H16.4648L16.7822 17.0166L20.1016 18.8604V5.64062H4.90234V16.8398Z" fill="#101828"/>
<path d="M10.502 9.67474C10.502 10.227 10.0542 10.6747 9.50195 10.6747C8.94967 10.6747 8.50195 10.227 8.50195 9.67474C8.50195 9.12246 8.94967 8.67474 9.50195 8.67474C10.0542 8.67474 10.502 9.12246 10.502 9.67474Z" fill="#101828"/>
<path d="M16.502 9.67474C16.502 10.227 16.0542 10.6747 15.502 10.6747C14.9497 10.6747 14.502 10.227 14.502 9.67474C14.502 9.12246 14.9497 8.67474 15.502 8.67474C16.0542 8.67474 16.502 9.12246 16.502 9.67474Z" fill="#101828"/>
<path d="M15.2704 13.0123C14.3354 14.0479 13.212 14.3818 12.1737 14.2671C11.1703 14.1563 10.2804 13.6325 9.72447 13.0093L10.7694 12.0777C11.1143 12.4642 11.6947 12.8067 12.327 12.8765C12.9244 12.9425 13.6024 12.7712 14.2313 12.0748L15.2704 13.0123Z" fill="#101828"/>
</svg>
