<svg preserveAspectRatio="none" width="100%" height="100%" overflow="visible" style="display: block;" viewBox="0 0 54 54" fill="none" xmlns="http://www.w3.org/2000/svg">
<g id="Vector">
<path d="M0 4.20117C0 1.88158 1.88158 0 4.20117 0H17.9854V4.20117H4.20117V17.9854H0V4.20117Z" fill="var(--fill-0, #E53838)"/>
<path d="M53.9473 4.20117C53.9473 1.88158 52.0657 0 49.7461 0H35.9619V4.20117H49.7461V17.9854H53.9473V4.20117Z" fill="var(--fill-0, #E53838)"/>
<path d="M0 49.6938C0 52.0134 1.88158 53.895 4.20117 53.895H17.9854V49.6938H4.20117V35.9096H0V49.6938Z" fill="var(--fill-0, #E53838)"/>
<path d="M53.9473 49.6938C53.9473 52.0134 52.0657 53.895 49.7461 53.895H35.9619V49.6938H49.7461V35.9096H53.9473V49.6938Z" fill="var(--fill-0, #E53838)"/>
<path d="M13.0342 16.2051H17.2354V24.0772H13.0342V16.2051Z" fill="var(--fill-0, #E53838)"/>
<path d="M25.7109 16.2051H29.9121L29.9092 31.5537H22.7227V27.3555H25.7109V16.2051Z" fill="var(--fill-0, #E53838)"/>
<path d="M36.5859 16.2051H40.7871V24.0772H36.5859V16.2051Z" fill="var(--fill-0, #E53838)"/>
</g>
</svg>
