<svg preserveAspectRatio="none" width="100%" height="100%" overflow="visible" style="display: block;" viewBox="0 0 54 54" fill="none" xmlns="http://www.w3.org/2000/svg">
<g id="Vector">
<path d="M0 4.20117C0 1.88158 1.88158 0 4.20117 0H17.9854V4.20117H4.20117V17.9854H0V4.20117Z" fill="var(--fill-0, #005DF9)"/>
<path d="M53.9473 4.20117C53.9473 1.88158 52.0657 0 49.7461 0H35.9619V4.20117H49.7461V17.9854H53.9473V4.20117Z" fill="var(--fill-0, #005DF9)"/>
<path d="M0 49.6938C0 52.0134 1.88158 53.895 4.20117 53.895H17.9854V49.6938H4.20117V35.9096H0V49.6938Z" fill="var(--fill-0, #005DF9)"/>
<path d="M53.9473 49.6938C53.9473 52.0134 52.0657 53.895 49.7461 53.895H35.9619V49.6938H49.7461V35.9096H53.9473V49.6938Z" fill="var(--fill-0, #005DF9)"/>
<path d="M13.0342 16.2051H17.2354V24.0772H13.0342V16.2051Z" fill="var(--fill-0, #005DF9)"/>
<path d="M25.7109 16.2051H29.9121L29.9092 31.5537H22.7227V27.3555H25.7109V16.2051Z" fill="var(--fill-0, #005DF9)"/>
<path d="M36.5859 16.2051H40.7871V24.0772H36.5859V16.2051Z" fill="var(--fill-0, #005DF9)"/>
<path d="M39.085 38.0928L37.4561 39.417L37.4473 39.4258C37.4426 39.4296 37.4364 39.4351 37.4297 39.4405C37.4163 39.4511 37.3981 39.465 37.377 39.4815C37.3345 39.5146 37.2767 39.5591 37.2041 39.6133C37.0578 39.7224 36.8503 39.8715 36.5889 40.0469C36.067 40.3971 35.3196 40.8589 34.3945 41.3184C32.5626 42.2283 29.9299 43.1843 26.9121 43.1846C23.8936 43.1846 21.259 42.2285 19.4268 41.3184C18.5017 40.8589 17.7543 40.3971 17.2324 40.0469C16.9711 39.8715 16.7635 39.7224 16.6172 39.6133C16.5445 39.5591 16.4867 39.5146 16.4443 39.4815C16.4231 39.4649 16.405 39.4511 16.3916 39.4405C16.3849 39.4351 16.3787 39.4296 16.374 39.4258L16.3652 39.417L14.7363 38.0928L17.3848 34.835L19.0107 36.1563L19.0283 36.1709C19.0477 36.186 19.081 36.2121 19.1279 36.2471C19.2233 36.3182 19.3743 36.4271 19.5732 36.5606C19.9725 36.8284 20.5623 37.1923 21.2959 37.5567C22.7816 38.2946 24.7609 38.9834 26.9121 38.9834C29.0627 38.9831 31.04 38.2944 32.5254 37.5567C33.2589 37.1923 33.8488 36.8284 34.248 36.5606C34.447 36.4271 34.598 36.3182 34.6934 36.2471C34.7403 36.2121 34.7736 36.1861 34.793 36.1709L34.8105 36.1563L34.8076 36.1592L36.4365 34.835L39.085 38.0928Z" fill="var(--fill-0, #005DF9)"/>
</g>
</svg>
