<svg width="25" height="25" viewBox="0 0 25 25" fill="none" xmlns="http://www.w3.org/2000/svg">
<path d="M17.1016 10.7402C17.1016 7.3713 14.3709 4.64062 11.002 4.64062C7.63302 4.64062 4.90234 7.3713 4.90234 10.7402C4.90234 14.1092 7.63302 16.8398 11.002 16.8398V18.2402C6.85982 18.2402 3.50195 14.8824 3.50195 10.7402C3.50195 6.5981 6.85982 3.24023 11.002 3.24023C15.1441 3.24023 18.502 6.5981 18.502 10.7402C18.502 14.8824 15.1441 18.2402 11.002 18.2402V16.8398C14.3709 16.8398 17.1016 14.1092 17.1016 10.7402Z" fill="#101828"/>
<path d="M21.4971 20.2451L20.5068 21.2354L15.0068 15.7354L15.9971 14.7451L21.4971 20.2451Z" fill="#101828"/>
</svg>
