<svg width="29" height="29" viewBox="0 0 29 29" fill="none" xmlns="http://www.w3.org/2000/svg">
<path d="M17.5021 12.6909V8.57373C17.5021 6.91688 16.1589 5.57373 14.5021 5.57373C12.8452 5.57373 11.5021 6.91688 11.5021 8.57373V12.6909C11.5021 14.3478 12.8452 15.6909 14.5021 15.6909V17.6909L14.2452 17.6851C11.6884 17.5557 9.63855 15.5055 9.50891 12.9487L9.50207 12.6909V8.57373C9.50207 5.81231 11.7407 3.57373 14.5021 3.57373C17.2635 3.57373 19.5021 5.81231 19.5021 8.57373V12.6909L19.4952 12.9487C19.3613 15.5905 17.1772 17.6909 14.5021 17.6909V15.6909C16.1589 15.6909 17.5021 14.3478 17.5021 12.6909Z" fill="currentColor"/>
<path d="M15.5021 20.6184V24.8235H13.5021V20.6184H15.5021Z" fill="currentColor"/>
<path d="M14.502 22.0736C13.3201 22.0736 12.1495 21.8404 11.0576 21.3881L10.6533 21.2093C9.72038 20.768 8.86902 20.1692 8.13769 19.4379L7.83301 19.1166C7.14018 18.352 6.58323 17.4732 6.1875 16.5179L6.02734 16.1049C5.67979 15.1332 5.50195 14.1078 5.50195 13.0736L7.50195 13.0736C7.50195 13.8779 7.64082 14.6753 7.91113 15.431L8.03516 15.7523C8.34292 16.4953 8.77563 17.1791 9.31445 17.7738L9.55176 18.0238C10.1205 18.5926 10.7832 19.0575 11.5088 19.4008L11.8232 19.5404C12.6725 19.8922 13.5827 20.0736 14.502 20.0736C15.3063 20.0736 16.1036 19.9347 16.8594 19.6644L17.1807 19.5404C17.9236 19.2326 18.6075 18.7999 19.2021 18.2611L19.4521 18.0238C20.0209 17.455 20.4858 16.7924 20.8291 16.0668L20.9688 15.7523C21.3205 14.903 21.502 13.9929 21.502 13.0736H23.502C23.502 14.2555 23.2687 15.426 22.8164 16.5179L22.6377 16.9222C22.1964 17.8552 21.5975 18.7065 20.8662 19.4379L20.5449 19.7426C19.7803 20.4354 18.9016 20.9923 17.9463 21.3881L17.5332 21.5482C16.5615 21.8958 15.5361 22.0736 14.502 22.0736Z" fill="currentColor"/>
</svg>
